<mxfile host="app.diagrams.net" modified="2023-10-17T02:07:04.174Z" agent="Mozilla/5.0 (Windows NT 10.0; Win64; x64) AppleWebKit/537.36 (KHTML, like Gecko) Chrome/118.0.0.0 Safari/537.36 Edg/118.0.2088.46" etag="Lp1W4Zpz1FObpXQyhBJm" version="22.0.4" type="github">
  <diagram name="第 1 页" id="c3tpg9IanGo3FgfKbMrP">
    <mxGraphModel dx="2026" dy="1145" grid="1" gridSize="10" guides="1" tooltips="1" connect="1" arrows="1" fold="1" page="1" pageScale="1" pageWidth="827" pageHeight="1169" math="0" shadow="0">
      <root>
        <mxCell id="0" />
        <mxCell id="1" parent="0" />
        <mxCell id="kSbYRbFgHYH_PkyUjedo-7" value="TCP" style="edgeStyle=orthogonalEdgeStyle;rounded=0;orthogonalLoop=1;jettySize=auto;html=1;entryX=0;entryY=0.5;entryDx=0;entryDy=0;exitX=0.5;exitY=0;exitDx=0;exitDy=0;fontSize=20;" edge="1" parent="1" source="kSbYRbFgHYH_PkyUjedo-1" target="kSbYRbFgHYH_PkyUjedo-5">
          <mxGeometry relative="1" as="geometry" />
        </mxCell>
        <mxCell id="kSbYRbFgHYH_PkyUjedo-1" value="&lt;p style=&quot;margin: 6px 0px 0px; text-align: center; font-size: 20px;&quot;&gt;&lt;b style=&quot;font-size: 20px;&quot;&gt;主控端&lt;/b&gt;&lt;/p&gt;&lt;hr style=&quot;font-size: 20px;&quot;&gt;&lt;p style=&quot;margin: 0px 0px 0px 8px; font-size: 20px;&quot;&gt;&lt;br style=&quot;font-size: 20px;&quot;&gt;&lt;/p&gt;" style="align=left;overflow=fill;html=1;dropTarget=0;whiteSpace=wrap;fontSize=20;fillColor=#fff2cc;strokeColor=#d6b656;" vertex="1" parent="1">
          <mxGeometry x="80" y="600" width="180" height="90" as="geometry" />
        </mxCell>
        <mxCell id="kSbYRbFgHYH_PkyUjedo-2" value="" style="shape=component;jettyWidth=8;jettyHeight=4;fontSize=20;fillColor=#fff2cc;strokeColor=#d6b656;" vertex="1" parent="kSbYRbFgHYH_PkyUjedo-1">
          <mxGeometry x="1" width="20" height="20" relative="1" as="geometry">
            <mxPoint x="-24" y="4" as="offset" />
          </mxGeometry>
        </mxCell>
        <mxCell id="kSbYRbFgHYH_PkyUjedo-8" value="TCP" style="edgeStyle=orthogonalEdgeStyle;rounded=0;orthogonalLoop=1;jettySize=auto;html=1;entryX=1;entryY=0.5;entryDx=0;entryDy=0;exitX=0.5;exitY=0;exitDx=0;exitDy=0;fontSize=20;" edge="1" parent="1" source="kSbYRbFgHYH_PkyUjedo-3" target="kSbYRbFgHYH_PkyUjedo-5">
          <mxGeometry relative="1" as="geometry" />
        </mxCell>
        <mxCell id="kSbYRbFgHYH_PkyUjedo-10" value="NAT成功的情况下使用UDP可靠传输&lt;br&gt;（受控端断开中转服务）" style="edgeStyle=orthogonalEdgeStyle;rounded=0;orthogonalLoop=1;jettySize=auto;html=1;entryX=0.75;entryY=1;entryDx=0;entryDy=0;exitX=0.25;exitY=1;exitDx=0;exitDy=0;fontSize=20;dashed=1;" edge="1" parent="1" source="kSbYRbFgHYH_PkyUjedo-3" target="kSbYRbFgHYH_PkyUjedo-1">
          <mxGeometry relative="1" as="geometry">
            <Array as="points">
              <mxPoint x="615" y="810" />
              <mxPoint x="215" y="810" />
            </Array>
          </mxGeometry>
        </mxCell>
        <mxCell id="kSbYRbFgHYH_PkyUjedo-3" value="&lt;p style=&quot;margin: 6px 0px 0px; text-align: center; font-size: 20px;&quot;&gt;&lt;b style=&quot;font-size: 20px;&quot;&gt;受控端&lt;/b&gt;&lt;/p&gt;&lt;hr style=&quot;font-size: 20px;&quot;&gt;&lt;p style=&quot;margin: 0px 0px 0px 8px; font-size: 20px;&quot;&gt;&lt;br style=&quot;font-size: 20px;&quot;&gt;&lt;/p&gt;" style="align=left;overflow=fill;html=1;dropTarget=0;whiteSpace=wrap;fontSize=20;fillColor=#fff2cc;strokeColor=#d6b656;" vertex="1" parent="1">
          <mxGeometry x="570" y="600" width="180" height="90" as="geometry" />
        </mxCell>
        <mxCell id="kSbYRbFgHYH_PkyUjedo-4" value="" style="shape=component;jettyWidth=8;jettyHeight=4;fontSize=20;fillColor=#fff2cc;strokeColor=#d6b656;" vertex="1" parent="kSbYRbFgHYH_PkyUjedo-3">
          <mxGeometry x="1" width="20" height="20" relative="1" as="geometry">
            <mxPoint x="-24" y="4" as="offset" />
          </mxGeometry>
        </mxCell>
        <mxCell id="kSbYRbFgHYH_PkyUjedo-5" value="&lt;p style=&quot;margin: 6px 0px 0px; text-align: center; font-size: 20px;&quot;&gt;&lt;b style=&quot;font-size: 20px;&quot;&gt;云端中转服务&lt;/b&gt;&lt;/p&gt;&lt;hr style=&quot;font-size: 20px;&quot;&gt;&lt;p style=&quot;margin: 0px 0px 0px 8px; font-size: 20px;&quot;&gt;&lt;br style=&quot;font-size: 20px;&quot;&gt;&lt;/p&gt;" style="align=left;overflow=fill;html=1;dropTarget=0;whiteSpace=wrap;fontSize=20;fillColor=#dae8fc;strokeColor=#6c8ebf;" vertex="1" parent="1">
          <mxGeometry x="310" y="390" width="194" height="90" as="geometry" />
        </mxCell>
        <mxCell id="kSbYRbFgHYH_PkyUjedo-6" value="" style="shape=component;jettyWidth=8;jettyHeight=4;fontSize=20;fillColor=#dae8fc;strokeColor=#6c8ebf;" vertex="1" parent="kSbYRbFgHYH_PkyUjedo-5">
          <mxGeometry x="1" width="20" height="20" relative="1" as="geometry">
            <mxPoint x="-24" y="4" as="offset" />
          </mxGeometry>
        </mxCell>
        <mxCell id="kSbYRbFgHYH_PkyUjedo-11" value="路由器允许的情况下使用TCP直接连接&lt;br&gt;（受控端断开中转服务）" style="edgeStyle=orthogonalEdgeStyle;rounded=0;orthogonalLoop=1;jettySize=auto;html=1;entryX=0.25;entryY=1;entryDx=0;entryDy=0;exitX=0.75;exitY=1;exitDx=0;exitDy=0;fontSize=20;dashed=1;" edge="1" parent="1" source="kSbYRbFgHYH_PkyUjedo-3" target="kSbYRbFgHYH_PkyUjedo-1">
          <mxGeometry relative="1" as="geometry">
            <mxPoint x="625" y="700" as="sourcePoint" />
            <mxPoint x="225" y="700" as="targetPoint" />
            <Array as="points">
              <mxPoint x="705" y="910" />
              <mxPoint x="125" y="910" />
            </Array>
          </mxGeometry>
        </mxCell>
      </root>
    </mxGraphModel>
  </diagram>
</mxfile>
